<svg width="20" height="20" viewBox="0 0 20 20" fill="none" xmlns="http://www.w3.org/2000/svg">
<path d="M10 0C15.5228 0 20 4.47715 20 10C20 15.5228 15.5228 20 10 20C4.47715 20 0 15.5228 0 10C0 4.47715 4.47715 0 10 0ZM9.375 3.75C9.02982 3.75 8.75 4.02982 8.75 4.375V11.25C8.75 11.4742 8.86984 11.6817 9.06445 11.793L13.4395 14.293C13.7391 14.4642 14.1217 14.3601 14.293 14.0605C14.4642 13.7609 14.3601 13.3783 14.0605 13.207L10 10.8877V4.375C10 4.02982 9.72018 3.75 9.375 3.75Z" fill="white"/>
</svg>
