<svg width="20" height="20" viewBox="0 0 20 20" fill="none" xmlns="http://www.w3.org/2000/svg">
<path fill-rule="evenodd" clip-rule="evenodd" d="M2.35597 0.638845C3.28361 -0.288798 4.81437 -0.193496 5.61979 0.842043L7.86192 3.72478C8.27337 4.2538 8.41877 4.94261 8.25623 5.59278L7.57214 8.32911C7.49992 8.618 7.58457 8.92359 7.79513 9.13415L10.8658 12.2049C11.0764 12.4154 11.382 12.5001 11.6709 12.4279L14.4072 11.7438C15.0574 11.5812 15.7462 11.7266 16.2752 12.1381L19.158 14.3802C20.1935 15.1856 20.2888 16.7164 19.3612 17.644L18.0688 18.9364C17.1441 19.8611 15.7611 20.2671 14.4722 19.814C11.2719 18.6888 8.26798 16.8468 5.71061 14.2894C3.15324 11.732 1.31119 8.72807 0.186048 5.52781C-0.267103 4.2389 0.138913 2.8559 1.06356 1.93125L2.35597 0.638845Z" fill="white"/>
</svg>
